<?xml version="1.0" encoding="UTF-8" standalone="no"?>
<svg
   viewBox="0 0 40 40"
   width="16px"
   height="16px"
   version="1.1"
   id="svg8"
   sodipodi:docname="vk.svg"
   xml:space="preserve"
   inkscape:version="1.2.1 (9c6d41e410, 2022-07-14)"
   xmlns:inkscape="http://www.inkscape.org/namespaces/inkscape"
   xmlns:sodipodi="http://sodipodi.sourceforge.net/DTD/sodipodi-0.dtd"
   xmlns="http://www.w3.org/2000/svg"
   xmlns:svg="http://www.w3.org/2000/svg"><defs
     id="defs12" /><sodipodi:namedview
     id="namedview10"
     pagecolor="#ffffff"
     bordercolor="#000000"
     borderopacity="0.25"
     inkscape:showpageshadow="2"
     inkscape:pageopacity="0.0"
     inkscape:pagecheckerboard="0"
     inkscape:deskcolor="#d1d1d1"
     showgrid="false"
     inkscape:zoom="23.201941"
     inkscape:cx="3.2540381"
     inkscape:cy="8.5768686"
     inkscape:window-width="1366"
     inkscape:window-height="705"
     inkscape:window-x="-8"
     inkscape:window-y="-8"
     inkscape:window-maximized="1"
     inkscape:current-layer="svg8" /><g
     inkscape:groupmode="layer"
     id="layer1"
     inkscape:label="Layer 1"
     style="fill:none;stroke:none" /><path
     id="path2"
     style="display:inline;stroke-width:0.954631;fill:#6699cc;fill-opacity:1"
     d="M 20.107422 1.7529297 C 10.090482 1.7529297 1.9677734 9.8756365 1.9677734 19.892578 C 1.9677734 29.909518 10.090482 38.032227 20.107422 38.032227 C 30.124364 38.032227 38.24707 29.909518 38.24707 19.892578 C 38.24707 9.8756365 30.124364 1.7529297 20.107422 1.7529297 z M 7.890625 12.998047 L 10.532227 12.998047 C 11.193226 12.998047 11.450102 13.293384 11.704102 14.067383 C 12.8771 17.999379 14.627579 21.000977 15.517578 21.000977 C 15.847578 21.000977 16.000977 20.840937 16.000977 19.960938 L 16.000977 16.337891 C 15.898977 14.468892 15 14.309577 15 13.642578 C 15 13.321578 15.213118 12.998047 15.620117 12.998047 L 20.268555 12.998047 C 20.827554 12.998047 21.000977 13.319673 21.000977 14.013672 L 21.000977 19.199219 C 21.000977 19.786218 21.448977 20 21.625977 20 C 21.955976 20 22.265977 20.015999 22.875977 19.375 C 24.756975 17.160002 26.386719 13.798828 26.386719 13.798828 C 26.564719 13.397829 26.868298 12.998047 27.529297 12.998047 L 30.151367 12.998047 C 30.737367 12.998047 30.985977 13.261047 31.000977 13.623047 C 31.006977 13.748047 30.9835 13.891969 30.9375 14.042969 C 30.6075 15.643967 27.224977 20.390625 27.250977 20.390625 C 27.106977 20.636625 27.010953 20.815977 27.001953 21.000977 C 26.992953 21.176976 27.063977 21.360094 27.250977 21.621094 C 27.529976 22.021093 28.135001 22.757977 28.75 23.500977 C 29.859999 24.842975 30.748383 26.250172 30.942383 26.826172 C 30.983383 26.983172 31.003977 27.124977 31.000977 27.250977 C 30.986977 27.745976 30.637296 27.998047 30.029297 27.998047 L 27.412109 27.998047 C 26.42011 27.998047 26.104998 27.017998 24.375 25 C 22.875002 23.250002 22.09975 22.998047 21.71875 22.998047 C 21.184751 22.998047 21.001977 23.134548 21.000977 23.935547 L 21.000977 26.904297 C 21.000977 27.571296 20.828389 27.998047 19.150391 27.998047 C 16.380393 27.998047 13.249021 26.125973 10.874023 22.875977 C 7.5990267 18.393981 7.0019531 14.495413 7.0019531 13.774414 C 7.0019531 13.374414 7.1276258 12.998047 7.890625 12.998047 z " /></svg>
